<svg xmlns="http://www.w3.org/2000/svg" xmlns:xlink="http://www.w3.org/1999/xlink" preserveAspectRatio="xMidYMid" width="89" height="152" viewBox="0 0 89 152">
  <defs>
    <style>

      .cls-2 {
        fill: #ff0024;
      }
    </style>
  </defs>
  <path d="M75.994,151.996 C76.064,151.996 76.119,151.968 76.175,151.927 C76.175,151.927 87.924,140.177 87.924,140.177 C88.021,140.080 88.021,139.913 87.924,139.816 C87.924,139.816 24.092,75.998 24.092,75.998 C24.092,75.998 87.924,12.179 87.924,12.179 C88.021,12.082 88.021,11.915 87.924,11.818 C87.924,11.818 76.175,0.068 76.175,0.068 C76.078,-0.029 75.911,-0.029 75.814,0.068 C75.814,0.068 0.065,75.817 0.065,75.817 C-0.032,75.914 -0.032,76.081 0.065,76.178 C0.065,76.178 75.814,151.927 75.814,151.927 C75.869,151.968 75.925,151.996 75.994,151.996 Z" id="path-1" class="cls-2" fill-rule="evenodd"/>
</svg>
