<svg xmlns="http://www.w3.org/2000/svg" xmlns:xlink="http://www.w3.org/1999/xlink" preserveAspectRatio="xMidYMid" width="23" height="23" viewBox="0 0 23 23">
  <defs>
    <style>

      .cls-2 {
        fill: #ff0024;
      }
    </style>
  </defs>
  <path d="M22.626,21.212 C22.626,21.212 21.212,22.626 21.212,22.626 C21.212,22.626 11.312,12.727 11.312,12.727 C11.312,12.727 1.413,22.626 1.413,22.626 C1.413,22.626 -0.001,21.212 -0.001,21.212 C-0.001,21.212 9.898,11.312 9.898,11.312 C9.898,11.312 -0.001,1.413 -0.001,1.413 C-0.001,1.413 1.413,-0.001 1.413,-0.001 C1.413,-0.001 11.312,9.898 11.312,9.898 C11.312,9.898 21.212,-0.001 21.212,-0.001 C21.212,-0.001 22.626,1.413 22.626,1.413 C22.626,1.413 12.727,11.312 12.727,11.312 C12.727,11.312 22.626,21.212 22.626,21.212 Z" id="path-1" class="cls-2" fill-rule="evenodd"/>
</svg>
