<svg xmlns="http://www.w3.org/2000/svg" xmlns:xlink="http://www.w3.org/1999/xlink" preserveAspectRatio="xMidYMid" width="40" height="17" viewBox="0 0 40 17">
  <defs>
    <style>

      .cls-2 {
        fill: #ff0024;
        filter: url(#drop-shadow-1);
      }
    </style>

    <filter id="drop-shadow-1" filterUnits="userSpaceOnUse">
      <feOffset in="SourceAlpha" dx="0" dy="1"/>
      <feGaussianBlur result="dropShadow" stdDeviation="0"/>
      <feFlood flood-color="#000000" flood-opacity="0.75"/>
      <feComposite operator="in" in2="dropShadow"/>
      <feComposite in="SourceGraphic" result="dropShadow"/>
    </filter>
  </defs>
  <path d="M27.130,0.502 C27.130,0.502 20.360,0.502 20.360,0.502 C17.725,0.558 15.144,1.419 13.292,3.280 C11.746,4.836 11.027,6.664 11.057,8.811 C11.092,10.987 12.138,12.930 13.970,14.445 C15.389,15.617 17.863,16.501 20.134,16.501 C20.134,16.501 40.000,16.497 40.000,16.497 C40.000,16.497 40.000,0.502 40.000,0.502 C40.000,0.502 35.328,0.502 35.328,0.502 C35.328,0.502 22.799,11.441 22.799,11.441 C22.799,11.441 29.402,11.441 29.402,11.441 C29.402,11.441 35.994,5.401 35.994,5.401 C35.994,5.401 35.994,12.819 35.994,12.819 C35.994,12.819 23.288,12.819 23.288,12.819 C23.288,12.819 21.766,12.887 21.766,12.887 C20.456,12.887 19.139,12.705 17.963,12.144 C16.476,11.433 15.563,10.185 15.499,8.583 C15.434,6.980 16.177,5.763 17.632,4.921 C18.651,4.331 19.915,4.088 21.102,4.088 C21.102,4.088 22.993,4.088 22.993,4.088 C22.993,4.088 27.130,0.502 27.130,0.502 ZM15.026,0.502 C15.026,0.502 9.254,0.502 9.254,0.502 C6.799,0.552 4.320,1.316 2.539,2.979 C0.849,4.560 -0.018,6.587 -0.008,8.907 C-0.001,10.743 0.817,12.614 1.864,13.849 C2.789,14.938 5.241,16.493 7.026,16.493 C7.026,16.493 14.502,16.493 14.502,16.493 C12.812,15.471 11.294,14.232 10.424,12.878 C9.484,12.912 8.371,12.908 7.466,12.664 C5.535,12.069 4.337,10.604 4.278,8.711 C4.218,6.818 5.187,5.667 6.340,4.947 C7.108,4.468 8.287,4.088 9.267,4.088 C9.267,4.088 10.718,4.088 10.718,4.088 C11.639,2.902 13.182,1.468 15.026,0.502 " id="path-1" class="cls-2" fill-rule="evenodd"/>
</svg>
