<?xml version="1.0" encoding="utf-8"?>
<!-- Generator: Adobe Illustrator 18.1.1, SVG Export Plug-In . SVG Version: 6.00 Build 0)  -->
<svg version="1.1" id="Layer_1" xmlns="http://www.w3.org/2000/svg" xmlns:xlink="http://www.w3.org/1999/xlink" x="0px" y="0px"
	 viewBox="0 0 299.9 201.5" enable-background="new 0 0 299.9 201.5" xml:space="preserve">
<path fill="#FFFFFF" stroke="#CECECE" stroke-miterlimit="10" d="M285.9,201.5H14.8c-7.7,0-13.9-6.2-13.9-13.9V14.9
	C0.9,7.2,7.1,1,14.8,1h271.1c7.7,0,13.9,6.2,13.9,13.9v172.6C299.9,195.3,293.6,201.5,285.9,201.5z"/>
<polyline fill="#FFFFFF" stroke="#CECECE" stroke-miterlimit="10" points="0.3,186.6 149.3,74.3 299.3,186.6 "/>
<g>
	<path fill="#FFFFFF" d="M299.3,15.5L157.1,129.4c-4.3,3.4-11.3,3.4-15.6,0L0.3,15.5"/>
	<path fill="none" stroke="#CECECE" stroke-miterlimit="10" d="M299.3,15.5L157.1,129.4c-4.3,3.4-11.3,3.4-15.6,0L0.3,15.5"/>
</g>
</svg>
