<svg xmlns="http://www.w3.org/2000/svg" xmlns:xlink="http://www.w3.org/1999/xlink" preserveAspectRatio="xMidYMid" width="26" height="10" viewBox="0 0 26 10">
  <defs>
    <style>

      .cls-2 {
        fill: #ffffff;
      }
    </style>
  </defs>
  <path d="M-0.000,10.000 C-0.000,10.000 -0.000,9.000 -0.000,9.000 C-0.000,9.000 26.000,9.000 26.000,9.000 C26.000,9.000 26.000,10.000 26.000,10.000 C26.000,10.000 -0.000,10.000 -0.000,10.000 ZM-0.000,6.000 C-0.000,6.000 26.000,6.000 26.000,6.000 C26.000,6.000 26.000,7.000 26.000,7.000 C26.000,7.000 -0.000,7.000 -0.000,7.000 C-0.000,7.000 -0.000,6.000 -0.000,6.000 ZM-0.000,3.000 C-0.000,3.000 26.000,3.000 26.000,3.000 C26.000,3.000 26.000,4.000 26.000,4.000 C26.000,4.000 -0.000,4.000 -0.000,4.000 C-0.000,4.000 -0.000,3.000 -0.000,3.000 ZM-0.000,-0.000 C-0.000,-0.000 26.000,-0.000 26.000,-0.000 C26.000,-0.000 26.000,1.000 26.000,1.000 C26.000,1.000 -0.000,1.000 -0.000,1.000 C-0.000,1.000 -0.000,-0.000 -0.000,-0.000 Z" id="path-1" class="cls-2" fill-rule="evenodd"/>
</svg>
