<svg xmlns="http://www.w3.org/2000/svg" xmlns:xlink="http://www.w3.org/1999/xlink" preserveAspectRatio="xMidYMid" width="25" height="19" viewBox="0 0 25 19">
  <defs>
    <style>

      .cls-2 {
        fill: #ff0024;
        filter: url(#drop-shadow-1);
      }
    </style>

    <filter id="drop-shadow-1" filterUnits="userSpaceOnUse">
      <feOffset in="SourceAlpha" dx="0" dy="1"/>
      <feGaussianBlur result="dropShadow" stdDeviation="0"/>
      <feFlood flood-color="#000000" flood-opacity="0.75"/>
      <feComposite operator="in" in2="dropShadow"/>
      <feComposite in="SourceGraphic" result="dropShadow"/>
    </filter>
  </defs>
  <path d="M18.018,18.499 C18.018,18.499 18.018,18.499 18.018,18.499 C18.018,18.499 18.010,18.499 18.010,18.499 C18.010,18.499 17.857,18.500 17.857,18.500 C17.857,18.500 17.858,18.499 17.858,18.499 C17.858,18.499 -0.002,18.499 -0.002,18.499 C-0.002,18.499 -0.027,16.073 0.734,15.092 C1.174,14.673 3.103,13.238 5.434,12.895 C7.405,12.683 6.983,9.978 7.060,10.016 C7.136,10.054 7.041,9.464 7.041,9.464 C7.041,9.464 5.470,7.839 5.490,6.373 C5.509,4.906 5.490,3.945 5.490,3.945 C5.490,3.945 5.721,0.499 8.103,0.499 C8.103,0.499 9.948,1.271 9.948,1.271 C12.089,1.271 12.469,3.945 12.469,3.945 C12.469,3.945 12.469,6.587 12.469,6.587 C12.469,6.587 12.245,8.594 10.903,9.344 C10.903,9.344 10.808,9.934 10.884,9.896 C10.960,9.858 10.502,12.553 12.833,12.895 C15.163,13.238 16.108,14.207 17.330,15.092 C16.533,14.120 16.127,14.242 14.286,13.100 C14.522,12.427 15.632,11.447 15.670,11.466 C15.733,11.497 15.654,11.008 15.654,11.008 C15.654,11.008 14.134,9.661 14.150,8.445 C14.166,7.229 14.150,5.797 14.150,5.797 C14.150,5.797 14.560,2.847 16.535,2.847 C16.535,2.847 18.065,3.445 18.065,3.445 C19.840,3.445 20.324,5.797 20.324,5.797 C20.324,5.797 20.324,8.622 20.324,8.622 C20.324,8.622 19.937,10.287 18.824,10.908 C18.824,10.908 18.745,11.398 18.808,11.366 C18.872,11.334 18.524,13.569 20.456,13.853 C22.389,14.137 23.822,15.327 24.186,15.675 C24.550,16.022 25.001,18.467 25.001,18.467 C25.001,18.467 18.018,18.499 18.018,18.499 ZM18.121,16.311 C18.307,17.034 18.199,17.781 18.102,18.188 C18.313,17.844 18.514,17.213 18.121,16.311 Z" id="path-1" class="cls-2" fill-rule="evenodd"/>
</svg>
