<?xml version="1.0" encoding="utf-8"?>
<!-- Generator: Adobe Illustrator 18.1.1, SVG Export Plug-In . SVG Version: 6.00 Build 0)  -->
<svg version="1.1" id="Layer_1" xmlns="http://www.w3.org/2000/svg" xmlns:xlink="http://www.w3.org/1999/xlink" x="0px" y="0px"
	 viewBox="0 0 1410 101.9" enable-background="new 0 0 1410 101.9" xml:space="preserve">
<g>
	<defs>
		<rect id="SVGID_1_" width="1410" height="101.9"/>
	</defs>
	<clipPath id="SVGID_2_">
		<use xlink:href="#SVGID_1_"  overflow="visible"/>
	</clipPath>
	<g clip-path="url(#SVGID_2_)">
		<defs>
			<rect id="SVGID_3_" width="1410" height="101.9"/>
		</defs>
		<clipPath id="SVGID_4_">
			<use xlink:href="#SVGID_3_"  overflow="visible"/>
		</clipPath>
		<defs>
			<filter id="Adobe_OpacityMaskFilter" filterUnits="userSpaceOnUse" x="-0.7" y="1.4" width="1411.2" height="103.2">
				<feColorMatrix  type="matrix" values="1 0 0 0 0  0 1 0 0 0  0 0 1 0 0  0 0 0 1 0"/>
			</filter>
		</defs>
		<mask maskUnits="userSpaceOnUse" x="-0.7" y="1.4" width="1411.2" height="103.2" id="SVGID_5_">
			<g filter="url(#Adobe_OpacityMaskFilter)">
				<g>
					<defs>
						<rect id="SVGID_6_" x="-10.3" y="-7.3" width="1430.4" height="114.7"/>
					</defs>
					<clipPath id="SVGID_7_" clip-path="url(#SVGID_4_)">
						<use xlink:href="#SVGID_6_"  overflow="visible"/>
					</clipPath>
					<g clip-path="url(#SVGID_7_)">
						
							<image overflow="visible" width="2980" height="239" xlink:href="A67511F4.jpg"  transform="matrix(0.48 0 0 0.48 -10.26 -7.26)">
						</image>
					</g>
				</g>
			</g>
		</mask>
		<g clip-path="url(#SVGID_4_)" mask="url(#SVGID_5_)">
			<g>
				<defs>
					<rect id="SVGID_8_" x="-0.7" y="1.4" width="1411.2" height="103.2"/>
				</defs>
				<clipPath id="SVGID_9_">
					<use xlink:href="#SVGID_8_"  overflow="visible"/>
				</clipPath>
				<rect x="-0.7" y="1.4" opacity="0.5" clip-path="url(#SVGID_9_)" fill="#444444" width="1411.2" height="103.2"/>
			</g>
		</g>
	</g>
	<g clip-path="url(#SVGID_2_)">
		<defs>
			<path id="SVGID_10_" d="M88.1,2.5l0,74.8h11.9v-64h25.2c6,0,19.6,1.4,19.6,13.2c0,9.3-10.2,15.2-18.8,15.2h-11.7l-8.3,10.8h23.2
				c19.3,0,20.4,11,20.3,19.5c-0.1,8.5-11.7,16.1-23.4,16.1h-2.6H58.1l-8.6-0.2c-20.7,0-37-16.1-37-36.5c0-22.6,15.1-38.1,37.6-38.1
				h19.6L84.3,2.5H49.1C24.6,2.5,0,17.5,0,51.4c0,23.7,16.6,47.4,48.4,47.4h80.4c19.6,0,33.3-11.7,33.3-28.6
				c0-11.9-6.1-20.5-16.2-24.8c6.4-4.8,10.5-11.7,10.5-19.4c0-11.7-8.8-23.5-29-23.5H88.1z M568.3,2.5v96.3H581V13.3h30.9
				c21.2,0,22.1,15.2,22.1,18.1c0,2.9-1.5,17.6-21.9,17.6h-27l9.6,10.8h16.5c22.3,0,35.4-10.5,35.4-28.3
				c0.3-17.6-12.5-28.9-34.7-28.9H568.3z M1054.3,2.5l9.1,10.8h28.8v85.5h11.8V13.3h27.8l11.8-10.8H1054.3z M259.1,2.5l-6.4,10.8
				h29.7c5.2,0,10.7,0.3,14.3,2.3c3.5,2,7.1,5.6,7,10.9c-0.2,11.6-11.5,15.2-18.8,15.2h-22.7l-6.7,10.8h30c8.7,0,22.4,6.2,22.4,19.1
				c0,15.4-20.5,16.5-22.8,16.5h-43.7V2.5h-38.3c-16.7,0-33.5,8.8-33.5,28.7c0,16.8,11.9,27.7,29.6,28.5l-38.9,39.3H177l47.4-49.3
				h-20.6c-17.4,0-22.1-11.3-22.1-16.9c0-11.8,8.8-19.4,23.3-19.4h24.7v85.5l57.8,0c21.6,0,32.9-12.8,32.9-27.5
				c0-13.9-7.1-20.2-16.4-24.4c5.2-4.1,10.9-8.6,10.9-20.4c0-9.5-4.9-16.3-11.3-20c-5.4-3.1-15.5-4.1-23.5-4.1H259.1z M330.1,2.5
				v96.4h0.2h39.4c21.7,0,36.3-11.6,36.3-28.9c0-17.8-12-28.3-34.3-28.3h-16.7l-9.6,10.8h25.2c21.2,0,22.8,14.6,22.8,17.6
				c0,2.9-1.6,18.1-22.8,18.1h-28.4V2.5H330.1z M461.8,2.5c-28.8,0-48.4,19.2-48.4,47.9c0,29.4,20.3,48.5,49.6,48.5h32.7l-9.9-11
				h-21.4c-18.1,0-38.3-13.4-38.3-37.1c0-22.5,16.5-37.5,38.1-37.5h44.6v85.5h12.4l0-85.5H551l14.2-10.8H461.8z M1310.1,2.5
				l-81.2,96.4h15.2l68.3-80.7v80.6h11.7V2.5H1310.1z M1334.5,2.5v96.4h39.3c21.6,0,36.2-11.6,36.2-28.9c0-17.8-12-28.3-34.3-28.3
				H1359l-9.6,10.8h25.2c21.2,0,22.8,14.6,22.8,17.6c0,2.9-1.6,18.1-22.8,18.1h-28.3V2.5H1334.5z M1131.5,51.3
				c0,28.1,21,49.3,48.9,49.3c9.2,0,18.2-2.5,25.8-7.2l0.7-0.4V78.6l-2.5,2c-6.5,5.7-14.8,8.7-23.9,8.7c-21.5,0-37.2-16-37.2-38
				c0-21.9,16.2-38.5,37.6-38.5c12,0,22.6,5.3,28.9,14.5c3.9,5.7,6.2,13.1,6.5,21.6v49.9h0v0h11.6v0h0.1V2.5h-11.7v15.8
				c-8.9-10.7-21.2-16.8-35.6-16.8C1152.7,1.5,1131.5,22.9,1131.5,51.3 M941.6,1.5l-74.6,75.8h17.2l60.6-61.7v72.5h-92.5V2.5h-11.7
				L777,81l0.1-78.4h-11.6v96.3h11.6l63.5-78.5v78.5l116.5,0V1.5H941.6z M967,50.9c0,27.5,21.9,49.9,48.4,49.9
				c26.1,0,40.1-11.5,48-27.2l-10.5-4.1c-6.5,13.5-19.2,20.1-36.5,20.1c-21.2,0-38-17.5-38-38.7c0-21.2,17.3-38.5,38.5-38.5
				c19.6,0,34.2,11.4,37.2,33h-57.1l-12.4,10.8h81l0.3-5.3c0-29.8-21.6-49.9-49-49.9C989.4,1,967,23.4,967,50.9 M666,51
				c0-21.6,17.6-39.2,39.2-39.2c21.6,0,39.2,17.6,39.2,39.2c0,21.5-17.6,39.2-39.2,39.2C683.5,90.2,666,72.5,666,51 M705.1,0
				c-28.1,0-51,22.9-51,51c0,28,22.9,50.9,51,50.9c28,0,50.9-22.9,50.9-50.9C756,22.9,733.2,0,705.1,0z"/>
		</defs>
		<clipPath id="SVGID_11_">
			<use xlink:href="#SVGID_10_"  overflow="visible"/>
		</clipPath>
		
			<linearGradient id="SVGID_12_" gradientUnits="userSpaceOnUse" x1="0" y1="108.8055" x2="1" y2="108.8055" gradientTransform="matrix(0 101.886 101.886 0 -10380.7588 0)">
			<stop  offset="0" style="stop-color:#FFFFFF"/>
			<stop  offset="1" style="stop-color:#AAAAAA"/>
		</linearGradient>
		<rect clip-path="url(#SVGID_11_)" fill="url(#SVGID_12_)" width="1410" height="101.9"/>
	</g>
	<polygon clip-path="url(#SVGID_2_)" fill="#CC0000" points="821.9,2.5 785.5,2.5 785.4,28.9 828.7,2.5 	"/>
</g>
</svg>
