<svg xmlns="http://www.w3.org/2000/svg" xmlns:xlink="http://www.w3.org/1999/xlink" preserveAspectRatio="xMidYMid" width="13" height="15" viewBox="0 0 13 15">
  <defs>
    <style>

      .cls-2 {
        fill: #666666;
      }
    </style>
  </defs>
  <path d="M-0.004,8.891 C-0.004,8.891 1.595,8.891 1.595,8.891 C1.595,8.891 1.595,10.220 1.595,10.220 C1.595,10.220 -0.004,10.220 -0.004,10.220 C-0.004,10.220 -0.004,11.956 -0.004,11.956 C-0.004,11.956 1.595,11.956 1.595,11.956 C1.595,11.956 1.595,14.999 1.595,14.999 C1.595,14.999 3.578,14.999 3.578,14.999 C3.578,14.999 3.578,11.956 3.578,11.956 C3.578,11.956 12.213,11.956 12.213,11.956 C12.213,11.956 12.213,10.220 12.213,10.220 C12.213,10.220 3.578,10.220 3.578,10.220 C3.578,10.220 3.578,8.891 3.578,8.891 C3.578,8.891 7.394,8.891 7.394,8.891 C9.505,8.891 10.976,8.462 11.787,7.583 C12.597,6.705 13.002,5.612 13.002,4.326 C13.002,2.182 11.659,0.446 9.484,0.125 C8.972,0.039 8.226,-0.004 7.224,-0.004 C7.224,-0.004 1.595,-0.004 1.595,-0.004 C1.595,-0.004 1.595,7.176 1.595,7.176 C1.595,7.176 -0.004,7.176 -0.004,7.176 C-0.004,7.176 -0.004,8.891 -0.004,8.891 ZM3.578,1.775 C3.578,1.775 7.373,1.775 7.373,1.775 C8.290,1.775 8.908,1.818 9.228,1.904 C10.273,2.182 10.934,3.125 10.934,4.390 C10.934,6.126 9.996,7.133 7.416,7.133 C7.416,7.133 3.578,7.133 3.578,7.133 C3.578,7.133 3.578,1.775 3.578,1.775 Z" id="path-1" class="cls-2" fill-rule="evenodd"/>
</svg>
